<svg width="0" height="0" class="hidden">
  <symbol xmlns="http://www.w3.org/2000/svg" viewBox="0 0 512 512" id="play">
    <title>Play</title>
    <path d="M133 440a35.37 35.37 0 01-17.5-4.67c-12-6.8-19.46-20-19.46-34.33V111c0-14.37 7.46-27.53 19.46-34.33a35.13 35.13 0 0135.77.45l247.85 148.36a36 36 0 010 61l-247.89 148.4A35.5 35.5 0 01133 440z"></path>
  </symbol>
  <symbol xmlns="http://www.w3.org/2000/svg" viewBox="0 0 512 512" id="play-back">
    <title>Play Back</title>
    <path d="M30.71 229.47l188.87-113a30.54 30.54 0 0131.09-.39 33.74 33.74 0 0116.76 29.47v79.05l180.72-108.16a30.54 30.54 0 0131.09-.39A33.74 33.74 0 01496 145.52v221A33.73 33.73 0 01479.24 396a30.54 30.54 0 01-31.09-.39L267.43 287.4v79.08A33.73 33.73 0 01250.67 396a30.54 30.54 0 01-31.09-.39l-188.87-113a31.27 31.27 0 010-53z"></path>
  </symbol>
  <symbol xmlns="http://www.w3.org/2000/svg" viewBox="0 0 512 512" id="play-forward">
    <title>Play Forward</title>
    <path d="M481.29 229.47l-188.87-113a30.54 30.54 0 00-31.09-.39 33.74 33.74 0 00-16.76 29.47v79.05L63.85 116.44a30.54 30.54 0 00-31.09-.39A33.74 33.74 0 0016 145.52v221A33.74 33.74 0 0032.76 396a30.54 30.54 0 0031.09-.39L244.57 287.4v79.08A33.74 33.74 0 00261.33 396a30.54 30.54 0 0031.09-.39l188.87-113a31.27 31.27 0 000-53z"></path>
  </symbol>
  <symbol xmlns="http://www.w3.org/2000/svg" viewBox="0 0 512 512" id="pause">
    <title>Pause</title>
    <path d="M208 432h-48a16 16 0 01-16-16V96a16 16 0 0116-16h48a16 16 0 0116 16v320a16 16 0 01-16 16zm144 0h-48a16 16 0 01-16-16V96a16 16 0 0116-16h48a16 16 0 0116 16v320a16 16 0 01-16 16z"></path>
  </symbol>
</svg>