<svg width="0" height="0" class="hidden">
  <symbol xmlns="http://www.w3.org/2000/svg" viewBox="0 0 512 512" id="pause">
    <title>Pause</title>
    <path d="M208 432h-48a16 16 0 01-16-16V96a16 16 0 0116-16h48a16 16 0 0116 16v320a16 16 0 01-16 16zm144 0h-48a16 16 0 01-16-16V96a16 16 0 0116-16h48a16 16 0 0116 16v320a16 16 0 01-16 16z"></path>
  </symbol>
  <symbol xmlns="http://www.w3.org/2000/svg" viewBox="0 0 512 512" id="play">
    <title>Play</title>
    <path d="M133 440a35.37 35.37 0 01-17.5-4.67c-12-6.8-19.46-20-19.46-34.33V111c0-14.37 7.46-27.53 19.46-34.33a35.13 35.13 0 0135.77.45l247.85 148.36a36 36 0 010 61l-247.89 148.4A35.5 35.5 0 01133 440z"></path>
  </symbol>
  <symbol xmlns="http://www.w3.org/2000/svg" viewBox="0 0 512 512" id="play-back">
    <title>Play Back</title>
    <path d="M30.71 229.47l188.87-113a30.54 30.54 0 0131.09-.39 33.74 33.74 0 0116.76 29.47v79.05l180.72-108.16a30.54 30.54 0 0131.09-.39A33.74 33.74 0 01496 145.52v221A33.73 33.73 0 01479.24 396a30.54 30.54 0 01-31.09-.39L267.43 287.4v79.08A33.73 33.73 0 01250.67 396a30.54 30.54 0 01-31.09-.39l-188.87-113a31.27 31.27 0 010-53z"></path>
  </symbol>
  <symbol xmlns="http://www.w3.org/2000/svg" viewBox="0 0 512 512" id="play-forward">
    <title>Play Forward</title>
    <path d="M481.29 229.47l-188.87-113a30.54 30.54 0 00-31.09-.39 33.74 33.74 0 00-16.76 29.47v79.05L63.85 116.44a30.54 30.54 0 00-31.09-.39A33.74 33.74 0 0016 145.52v221A33.74 33.74 0 0032.76 396a30.54 30.54 0 0031.09-.39L244.57 287.4v79.08A33.74 33.74 0 00261.33 396a30.54 30.54 0 0031.09-.39l188.87-113a31.27 31.27 0 000-53z"></path>
  </symbol>
  <symbol xmlns="http://www.w3.org/2000/svg" viewBox="0 0 512 512" id="repeat">
    <title>Repeat</title>
    <path fill="none" stroke="currentColor" stroke-linecap="round" stroke-linejoin="round" stroke-width="32" d="M320 120l48 48-48 48"></path>
    <path d="M352 168H144a80.24 80.24 0 00-80 80v16m128 128l-48-48 48-48" fill="none" stroke="currentColor" stroke-linecap="round" stroke-linejoin="round" stroke-width="32"></path>
    <path d="M160 344h208a80.24 80.24 0 0080-80v-16" fill="none" stroke="currentColor" stroke-linecap="round" stroke-linejoin="round" stroke-width="32"></path>
  </symbol>
  <symbol viewBox="0 0 0 0" id="sprite"></symbol>
  <symbol xmlns="http://www.w3.org/2000/svg" viewBox="0 0 512 512" id="volume-high">
    <title>Volume High</title>
    <path d="M232 416a23.88 23.88 0 01-14.2-4.68 8.27 8.27 0 01-.66-.51L125.76 336H56a24 24 0 01-24-24V200a24 24 0 0124-24h69.75l91.37-74.81a8.27 8.27 0 01.66-.51A24 24 0 01256 120v272a24 24 0 01-24 24zm-106.18-80zm-.27-159.86zM320 336a16 16 0 01-14.29-23.19c9.49-18.87 14.3-38 14.3-56.81 0-19.38-4.66-37.94-14.25-56.73a16 16 0 0128.5-14.54C346.19 208.12 352 231.44 352 256c0 23.86-6 47.81-17.7 71.19A16 16 0 01320 336z"></path>
    <path d="M368 384a16 16 0 01-13.86-24C373.05 327.09 384 299.51 384 256c0-44.17-10.93-71.56-29.82-103.94a16 16 0 0127.64-16.12C402.92 172.11 416 204.81 416 256c0 50.43-13.06 83.29-34.13 120a16 16 0 01-13.87 8z"></path>
    <path d="M416 432a16 16 0 01-13.39-24.74C429.85 365.47 448 323.76 448 256c0-66.5-18.18-108.62-45.49-151.39a16 16 0 1127-17.22C459.81 134.89 480 181.74 480 256c0 64.75-14.66 113.63-50.6 168.74A16 16 0 01416 432z"></path>
  </symbol>
  <symbol xmlns="http://www.w3.org/2000/svg" viewBox="0 0 512 512" id="volume-low">
    <title>Volume Low</title>
    <path d="M296 416.19a23.92 23.92 0 01-14.21-4.69l-.66-.51-91.46-75H120a24 24 0 01-24-24V200a24 24 0 0124-24h69.65l91.46-75 .66-.51A24 24 0 01320 119.83v272.34a24 24 0 01-24 24zM384 336a16 16 0 01-14.29-23.18c9.49-18.9 14.3-38 14.3-56.82 0-19.36-4.66-37.92-14.25-56.73a16 16 0 0128.5-14.54C410.2 208.16 416 231.47 416 256c0 23.83-6 47.78-17.7 71.18A16 16 0 01384 336z"></path>
  </symbol>
  <symbol xmlns="http://www.w3.org/2000/svg" viewBox="0 0 512 512" id="volume-mute">
    <title>Volume Mute</title>
    <path fill="none" stroke="currentColor" stroke-linecap="round" stroke-miterlimit="10" stroke-width="32" d="M416 432L64 80"></path>
    <path d="M243.33 98.86a23.89 23.89 0 00-25.55 1.82l-.66.51-28.52 23.35a8 8 0 00-.59 11.85l54.33 54.33a8 8 0 0013.66-5.66v-64.49a24.51 24.51 0 00-12.67-21.71zm8 236.43L96.69 180.69A16 16 0 0085.38 176H56a24 24 0 00-24 24v112a24 24 0 0024 24h69.76l92 75.31a23.9 23.9 0 0025.87 1.69A24.51 24.51 0 00256 391.45v-44.86a16 16 0 00-4.67-11.3zM352 256c0-24.56-5.81-47.87-17.75-71.27a16 16 0 10-28.5 14.55C315.34 218.06 320 236.62 320 256q0 4-.31 8.13a8 8 0 002.32 6.25l14.36 14.36a8 8 0 0013.55-4.31A146 146 0 00352 256zm64 0c0-51.18-13.08-83.89-34.18-120.06a16 16 0 00-27.64 16.12C373.07 184.44 384 211.83 384 256c0 23.83-3.29 42.88-9.37 60.65a8 8 0 001.9 8.26L389 337.4a8 8 0 0013.13-2.79C411 311.76 416 287.26 416 256z"></path>
    <path d="M480 256c0-74.25-20.19-121.11-50.51-168.61a16 16 0 10-27 17.22C429.82 147.38 448 189.5 448 256c0 46.19-8.43 80.27-22.43 110.53a8 8 0 001.59 9l11.92 11.92a8 8 0 0012.92-2.16C471.6 344.9 480 305 480 256z"></path>
  </symbol>
  <symbol xmlns="http://www.w3.org/2000/svg" viewBox="0 0 512 512" id="volume-medium">
    <title>Volume Medium</title>
    <path d="M264 416.19a23.92 23.92 0 01-14.21-4.69l-.66-.51-91.46-75H88a24 24 0 01-24-24V200a24 24 0 0124-24h69.65l91.46-75 .66-.51A24 24 0 01288 119.83v272.34a24 24 0 01-24 24zM352 336a16 16 0 01-14.29-23.18c9.49-18.9 14.3-38 14.3-56.82 0-19.36-4.66-37.92-14.25-56.73a16 16 0 0128.5-14.54C378.2 208.16 384 231.47 384 256c0 23.83-6 47.78-17.7 71.18A16 16 0 01352 336z"></path>
    <path d="M400 384a16 16 0 01-13.87-24C405 327.05 416 299.45 416 256c0-44.12-10.94-71.52-29.83-103.95A16 16 0 01413.83 136C434.92 172.16 448 204.88 448 256c0 50.36-13.06 83.24-34.12 120a16 16 0 01-13.88 8z"></path>
  </symbol>
  <symbol xmlns="http://www.w3.org/2000/svg" viewBox="0 0 512 512" id="volume-off">
    <title>Volume Off</title>
    <path d="M344 416a23.92 23.92 0 01-14.21-4.69c-.23-.16-.44-.33-.66-.51l-91.46-74.9H168a24 24 0 01-24-24V200.07a24 24 0 0124-24h69.65l91.46-74.9c.22-.18.43-.35.66-.51A24 24 0 01368 120v272a24 24 0 01-24 24z"></path>
  </symbol>
</svg>